<svg xmlns="http://www.w3.org/2000/svg" width="95" height="95" viewBox="0 0 95 95" fill="none">
<path d="M47.4009 94.8021C73.5798 94.8021 94.8021 73.5798 94.8021 47.4009C94.8021 21.2221 73.5798 0 47.4009 0C21.2221 0 0 21.2221 0 47.4009C0 73.5798 21.2221 94.8021 47.4009 94.8021Z" fill="black"/>
<path fill-rule="evenodd" clip-rule="evenodd" d="M60.7389 53.3454L64.3056 55.413L67.8723 57.4806C68.6994 57.9459 69.2679 58.8762 69.2163 59.8584V68.0772C69.2163 69.0594 68.6994 69.9381 67.8723 70.455L64.3056 72.5229L60.7389 74.5905C59.9118 75.1074 58.878 75.1074 57.999 74.5905L54.4323 72.5229L50.8656 70.455C50.0388 69.99 49.47 69.0594 49.5219 68.0772V60.3237L32.877 50.709L36.1338 55.5681L32.0502 57.9459C31.2231 58.4628 30.1893 58.4628 29.3104 57.9459L25.7437 55.8783L22.177 53.8104C21.3499 53.3454 20.833 52.4664 20.833 51.4845V43.2138C20.833 42.2316 21.3499 41.3529 22.177 40.836L25.7437 38.7684L29.3104 36.7008C30.1374 36.1836 31.1712 36.1836 32.0502 36.7008L35.6169 38.7684L38.7699 40.5774L49.5219 34.3746V26.6725C49.5219 25.6904 50.0388 24.8117 50.8656 24.2947L54.4323 22.2271L57.999 20.1594C58.8261 19.6425 59.8599 19.6425 60.7389 20.1594L64.3056 22.2271L67.8723 24.2947C68.6994 24.76 69.2679 25.6904 69.2163 26.6725V34.8915C69.2163 35.8737 68.6994 36.7524 67.8723 37.2693L64.3056 39.3369L60.7389 41.4045C59.9118 41.9214 58.878 41.9214 57.999 41.4045L54.4323 39.3369L54.2256 39.2334L57.999 33.7026L51.3309 37.5795L40.5792 43.7823V51.0708L51.3309 57.2739L54.4842 55.4646L58.0509 53.397C58.8261 52.8285 59.9118 52.8801 60.7389 53.3454Z" fill="white"/>
<script xmlns=""/></svg>