<?xml version="1.0" encoding="utf-8"?>
<!-- Generator: Adobe Illustrator 22.1.0, SVG Export Plug-In . SVG Version: 6.00 Build 0)  -->
<svg version="1.1" id="Layer_1" xmlns="http://www.w3.org/2000/svg" xmlns:xlink="http://www.w3.org/1999/xlink" x="0px" y="0px"
	 viewBox="0 0 256 256" style="enable-background:new 0 0 256 256;" xml:space="preserve">
<style type="text/css">
	.st0{fill:#D73735;}
	.st1{fill:#F85252;}
	.st2{fill:#EDAF85;}
	.st3{fill:#F7C09A;}
	.st4{fill:#D8D6D7;}
	.st5{fill:#FFFFFF;}
	.st6{fill:#1C868E;}
	.st7{fill:#40C4DF;}
	.st8{fill:#491352;}
	.st9{fill:#56C1B3;}
	.st10{fill:#7BEFE4;}
</style>
<g>
	<path class="st6" d="M227.09,59.437v189.74c0,2.76-2.23,5-5,5H33.91c-2.77,0-5-2.24-5-5v-239c0-2.76,2.23-5,5-5H173.6
		c1.34,0,2.63,0.53,3.57,1.49l48.49,49.26C226.58,56.867,227.09,58.128,227.09,59.437z"/>
	<path class="st7" d="M227.09,59.437v189.74c0,2.76-2.23,5-5,5H49.12c-2.76,0-5-2.24-5-5v-239c0-2.76,2.24-5,5-5H173.6
		c1.34,0,2.63,0.53,3.57,1.49l48.49,49.26C226.58,56.867,227.09,58.128,227.09,59.437z"/>
	<rect x="28.906" y="91.403" class="st5" width="198.188" height="122.886"/>
	<rect x="28.91" y="91.407" class="st4" width="15.21" height="122.88"/>
	<g>
		<path class="st7" d="M43.419,159.481c-4.604,0-8.209,3.605-8.209,8.208s3.605,8.208,8.209,8.208c4.433,0,8.039-3.682,8.039-8.208
			S47.851,159.481,43.419,159.481z"/>
		<path class="st7" d="M91.715,159.024c-2.111,4.61-6.165,7.046-11.725,7.046c-8.479,0-14.175-6.247-14.175-15.544
			c0-9.336,5.697-15.609,14.175-15.609c5.566,0,9.618,2.455,11.72,7.1l0.651,1.439h12.25l-1.282-3.327
			c-3.696-9.595-12.421-15.322-23.339-15.322c-14.328,0-25.132,11.057-25.132,25.719c0,14.588,10.805,25.588,25.132,25.588
			c10.922,0,19.646-5.677,23.337-15.186l1.293-3.332H92.369L91.715,159.024z"/>
		<path class="st7" d="M157.343,145.83h-15.25v-15.25c0-3.03-2.456-5.486-5.486-5.486h0c-3.03,0-5.486,2.456-5.486,5.486v15.25
			h-15.25c-3.03,0-5.486,2.456-5.486,5.486v0c0,3.03,2.456,5.486,5.486,5.486h15.25v15.25c0,3.03,2.456,5.486,5.486,5.486h0
			c3.03,0,5.486-2.456,5.486-5.486v-15.25h15.25c3.03,0,5.486-2.456,5.486-5.486v0C162.829,148.286,160.373,145.83,157.343,145.83z"
			/>
		<path class="st7" d="M215.305,145.83h-15.25v-15.25c0-3.03-2.456-5.486-5.486-5.486h0c-3.03,0-5.486,2.456-5.486,5.486v15.25
			h-15.25c-3.03,0-5.486,2.456-5.486,5.486v0c0,3.03,2.456,5.486,5.486,5.486h15.25v15.25c0,3.03,2.456,5.486,5.486,5.486h0
			c3.03,0,5.486-2.456,5.486-5.486v-15.25h15.25c3.03,0,5.486-2.456,5.486-5.486v0C220.791,148.286,218.335,145.83,215.305,145.83z"
			/>
	</g>
	<g>
		<path class="st8" d="M227.083,52.854l-48.49-49.267c-1.309-1.327-3.127-2.088-4.988-2.088H33.906c-3.86,0-7,3.141-7,7
			c0,10.918,0,228.901,0,239c0,3.859,3.14,7,7,7h188.188c3.859,0,7-3.141,7-7c0-8.064,0-181.467,0-189.735
			C229.094,55.916,228.38,54.172,227.083,52.854z M225.094,247.5c0,1.654-1.346,3-3,3H33.906c-1.654,0-3-1.346-3-3v-32.886h194.188
			V247.5z M225.094,210.614H30.906V91.729h194.188V210.614z M225.094,87.729H30.906V8.5c0-1.654,1.346-3,3-3h139.699
			c0.798,0,1.578,0.326,2.138,0.896l48.489,49.266c0.557,0.564,0.862,1.312,0.862,2.104V87.729z"/>
		<path class="st8" d="M43.419,177.897c5.536,0,10.039-4.579,10.039-10.208s-4.503-10.208-10.039-10.208
			c-5.725,0-10.209,4.484-10.209,10.208S37.694,177.897,43.419,177.897z M43.419,161.481c3.33,0,6.039,2.785,6.039,6.208
			s-2.709,6.208-6.039,6.208c-3.481,0-6.209-2.727-6.209-6.208S39.937,161.481,43.419,161.481z"/>
		<path class="st8" d="M105.192,161.651l1.293-3.332c0.239-0.615,0.158-1.309-0.214-1.854c-0.373-0.545-0.99-0.87-1.65-0.87H92.369
			c-1.516,0-1.862,1.262-2.473,2.595c0,0,0,0,0,0.001c-4.308,9.408-22.082,8.284-22.082-7.666c0-16.063,17.807-17.117,22.073-7.685
			c0.607,1.342,0.945,2.614,2.473,2.614h12.25c1.402,0,2.371-1.411,1.866-2.719l-1.282-3.326
			c-10.075-26.157-52.337-20.652-52.337,11.115C52.858,182.111,95.114,187.613,105.192,161.651z M101.697,141.455h-8.045
			c-6.331-14.016-29.836-10.877-29.836,9.07c0,19.848,23.42,23.007,29.838,9.07h8.046c-9.009,23.24-44.841,17.558-44.841-9.07
			C56.858,123.762,92.664,117.997,101.697,141.455z"/>
		<path class="st8" d="M115.872,158.801h13.25v13.25c0,4.127,3.358,7.485,7.485,7.485s7.485-3.358,7.485-7.485v-13.25h13.25
			c4.127,0,7.485-3.358,7.485-7.485s-3.358-7.485-7.485-7.485h-13.25v-13.25c0-4.127-3.358-7.485-7.485-7.485
			s-7.485,3.358-7.485,7.485v13.25h-13.25c-4.128,0-7.486,3.358-7.486,7.485S111.744,158.801,115.872,158.801z M115.872,147.83
			h15.25c1.104,0,2-0.896,2-2v-15.25c0-1.922,1.563-3.485,3.485-3.485s3.485,1.563,3.485,3.485v15.25c0,1.104,0.896,2,2,2h15.25
			c1.922,0,3.485,1.563,3.485,3.485s-1.563,3.485-3.485,3.485h-15.25c-1.104,0-2,0.896-2,2v15.25c0,1.922-1.563,3.485-3.485,3.485
			s-3.485-1.563-3.485-3.485v-15.25c0-1.104-0.896-2-2-2h-15.25c-1.922,0-3.486-1.563-3.486-3.485S113.95,147.83,115.872,147.83z"/>
		<path class="st8" d="M173.834,158.801h13.25v13.25c0,4.127,3.358,7.485,7.485,7.485c4.128,0,7.486-3.358,7.486-7.485v-13.25
			h13.249c4.128,0,7.486-3.358,7.486-7.485s-3.358-7.485-7.486-7.485h-13.249v-13.25c0-4.127-3.358-7.485-7.486-7.485
			c-4.127,0-7.485,3.358-7.485,7.485v13.25h-13.25c-4.127,0-7.485,3.358-7.485,7.485S169.707,158.801,173.834,158.801z
			 M173.834,147.83h15.25c1.104,0,2-0.896,2-2v-15.25c0-1.922,1.563-3.485,3.485-3.485c1.923,0,3.486,1.563,3.486,3.485v15.25
			c0,1.104,0.896,2,2,2h15.249c1.923,0,3.486,1.563,3.486,3.485s-1.563,3.485-3.486,3.485h-15.249c-1.104,0-2,0.896-2,2v15.25
			c0,1.922-1.563,3.485-3.486,3.485c-1.922,0-3.485-1.563-3.485-3.485v-15.25c0-1.104-0.896-2-2-2h-15.25
			c-1.922,0-3.485-1.563-3.485-3.485S171.912,147.83,173.834,147.83z"/>
	</g>
</g>
</svg>
