<?xml version="1.0" encoding="utf-8"?>
<!-- Generator: Adobe Illustrator 22.1.0, SVG Export Plug-In . SVG Version: 6.00 Build 0)  -->
<svg version="1.1" id="Layer_1" xmlns="http://www.w3.org/2000/svg" xmlns:xlink="http://www.w3.org/1999/xlink" x="0px" y="0px"
	 viewBox="0 0 256 256" style="enable-background:new 0 0 256 256;" xml:space="preserve">
<style type="text/css">
	.st0{fill:#D73735;}
	.st1{fill:#F85252;}
	.st2{fill:#EDAF85;}
	.st3{fill:#F7C09A;}
	.st4{fill:#D8D6D7;}
	.st5{fill:#FFFFFF;}
	.st6{fill:#1C868E;}
	.st7{fill:#40C4DF;}
	.st8{fill:#491352;}
	.st9{fill:#56C1B3;}
	.st10{fill:#7BEFE4;}
</style>
<g>
	<path class="st6" d="M227.09,57.763v189.74c0,2.76-2.23,5-5,5H33.91c-2.77,0-5-2.24-5-5v-239c0-2.76,2.23-5,5-5H173.6
		c1.34,0,2.63,0.53,3.57,1.49l48.49,49.26C226.58,55.193,227.09,56.454,227.09,57.763z"/>
	<path class="st7" d="M227.09,57.763v189.74c0,2.76-2.23,5-5,5H49.12c-2.76,0-5-2.24-5-5v-239c0-2.76,2.24-5,5-5H173.6
		c1.34,0,2.63,0.53,3.57,1.49l48.49,49.26C226.58,55.193,227.09,56.454,227.09,57.763z"/>
	<rect x="28.906" y="89.729" class="st5" width="198.188" height="122.886"/>
	<rect x="28.91" y="89.733" class="st4" width="15.21" height="122.88"/>
	<g>
		<path class="st7" d="M45.32,167.282c-4.604,0-8.209,3.605-8.209,8.208s3.605,8.208,8.209,8.208c4.433,0,8.039-3.682,8.039-8.208
			S49.753,167.282,45.32,167.282z"/>
		<path class="st7" d="M82.594,118.646h-21.9v64.548h13.645V158.75h8.256c17.137,0,23.242-10.315,23.242-19.968
			C105.836,129.048,99.73,118.646,82.594,118.646z M82.594,146.45h-8.256v-15.504h8.256c8.312,0,9.432,3.961,9.432,7.836
			C92.025,142.352,90.953,146.45,82.594,146.45z"/>
		<polygon class="st7" points="151.306,144.35 127.488,144.35 127.488,118.646 113.843,118.646 113.843,183.194 127.488,183.194 
			127.488,156.65 151.306,156.65 151.306,183.194 164.951,183.194 164.951,118.646 151.306,118.646 		"/>
		<path class="st7" d="M195.645,118.646h-21.9v64.548h13.645V158.75h8.256c17.138,0,23.244-10.315,23.244-19.968
			C218.889,129.048,212.783,118.646,195.645,118.646z M192.954,146.45h-8.256v-15.504h8.256c8.312,0,9.432,3.961,9.432,7.836
			C202.385,142.352,201.313,146.45,192.954,146.45z"/>
	</g>
	<g>
		<path class="st8" d="M227.083,52.855l-48.49-49.266c-1.308-1.328-3.126-2.089-4.988-2.089H33.906c-3.859,0-7,3.14-7,7
			c0,10.918,0,228.901,0,239c0,3.86,3.141,7,7,7h188.188c3.859,0,7-3.14,7-7c0-8.064,0-181.467,0-189.735
			C229.094,55.916,228.38,54.172,227.083,52.855z M225.094,247.5c0,1.654-1.346,3-3,3H33.906c-1.654,0-3-1.346-3-3v-32.885h194.188
			V247.5z M225.094,210.615H30.906V91.729h194.188V210.615z M225.094,87.729H30.906V8.5c0-1.654,1.346-3,3-3h139.698
			c0.798,0,1.577,0.327,2.138,0.896l48.489,49.265c0.557,0.565,0.862,1.312,0.862,2.104V87.729z"/>
		<path class="st8" d="M45.32,185.698c5.535,0,10.039-4.579,10.039-10.208s-4.504-10.208-10.039-10.208
			c-5.725,0-10.209,4.484-10.209,10.208S39.596,185.698,45.32,185.698z M45.32,169.282c3.33,0,6.039,2.785,6.039,6.208
			s-2.709,6.208-6.039,6.208C37.092,181.698,37.087,169.282,45.32,169.282z"/>
		<path class="st8" d="M60.693,185.194h13.645c1.104,0,2-0.896,2-2V160.75h6.256c18.632,0,25.242-11.834,25.242-21.968
			c0-10.211-6.61-22.136-25.242-22.136h-21.9c-1.104,0-2,0.896-2,2v64.548C58.693,184.298,59.589,185.194,60.693,185.194z
			 M62.693,120.646h19.9c19.71,0,21.242,13.882,21.242,18.136c0,4.215-1.532,17.968-21.242,17.968h-8.256c-1.104,0-2,0.896-2,2
			v22.444h-9.645V120.646z"/>
		<path class="st8" d="M74.338,148.45h8.256c7.586,0,11.432-3.253,11.432-9.668c0-6.619-3.739-9.836-11.432-9.836h-8.256
			c-1.104,0-2,0.896-2,2v15.504C72.338,147.555,73.233,148.45,74.338,148.45z M76.338,132.946h6.256
			c6.863,0,7.432,2.761,7.432,5.836c0,2.868-0.574,5.668-7.432,5.668h-6.256V132.946z"/>
		<path class="st8" d="M113.844,185.194h13.645c1.104,0,2-0.896,2-2V158.65h19.818v24.544c0,1.104,0.896,2,2,2h13.645
			c1.104,0,2-0.896,2-2v-64.548c0-1.104-0.896-2-2-2h-13.645c-1.104,0-2,0.896-2,2v23.704h-19.818v-23.704c0-1.104-0.896-2-2-2
			h-13.645c-1.104,0-2,0.896-2,2v64.548C111.844,184.298,112.739,185.194,113.844,185.194z M115.844,120.646h9.645v23.704
			c0,1.104,0.896,2,2,2h23.818c1.104,0,2-0.896,2-2v-23.704h9.645v60.548h-9.645V156.65c0-1.104-0.896-2-2-2h-23.818
			c-1.104,0-2,0.896-2,2v24.544h-9.645V120.646z"/>
		<path class="st8" d="M173.744,185.194h13.645c1.104,0,2-0.896,2-2V160.75h6.256c18.633,0,25.244-11.834,25.244-21.968
			c0-10.211-6.611-22.136-25.244-22.136h-21.9c-1.104,0-2,0.896-2,2v64.548C171.744,184.298,172.64,185.194,173.744,185.194z
			 M175.744,120.646h19.9c19.712,0,21.244,13.882,21.244,18.136c0,4.215-1.532,17.968-21.244,17.968h-8.256c-1.104,0-2,0.896-2,2
			v22.444h-9.645V120.646z"/>
		<path class="st8" d="M204.385,138.782c0-6.619-3.739-9.836-11.432-9.836h-8.256c-1.104,0-2,0.896-2,2v15.504c0,1.104,0.896,2,2,2
			h8.256C200.539,148.45,204.385,145.197,204.385,138.782z M186.697,132.946h6.256c6.863,0,7.432,2.761,7.432,5.836
			c0,2.868-0.574,5.668-7.432,5.668h-6.256V132.946z"/>
	</g>
</g>
</svg>
